<svg xmlns="http://www.w3.org/2000/svg" version="1.1" xmlns:xlink="http://www.w3.org/1999/xlink" xmlns:svgjs="http://svgjs.dev/svgjs" width="1000" height="164" viewBox="0 0 1000 164"><g transform="matrix(1,0,0,1,-0.6060606060606233,-0.020503961838088003)"><svg viewBox="0 0 396 65" data-background-color="#ffffff" preserveAspectRatio="xMidYMid meet" height="164" width="1000" xmlns="http://www.w3.org/2000/svg" xmlns:xlink="http://www.w3.org/1999/xlink"><g id="tight-bounds" transform="matrix(1,0,0,1,0.2400000000000091,0.008126570240705178)"><svg viewBox="0 0 395.52 64.98374685951859" height="64.98374685951859" width="395.52"><g><svg viewBox="0 0 635.9715918809187 104.48982841988949" height="64.98374685951859" width="395.52"><g><rect width="6.818379566142231" height="90.72922872928176" x="215.78405114686498" y="6.880299845303867" fill="#ffffff" opacity="1" stroke-width="0" stroke="transparent" fill-opacity="1" class="rect-uu-0" data-fill-palette-color="primary" rx="1%" id="uu-0" data-palette-color="#096a2e"></rect></g><g transform="matrix(1,0,0,1,240.4515918809188,14.441068906077348)"><svg viewBox="0 0 395.5199999999999 75.6076906077348" height="75.6076906077348" width="395.5199999999999"><g><svg viewBox="0 0 395.5199999999999 75.6076906077348" height="75.6076906077348" width="395.5199999999999"><g><svg viewBox="0 0 395.5199999999999 75.6076906077348" height="75.6076906077348" width="395.5199999999999"><g transform="matrix(1,0,0,1,0,0)"><svg width="395.5199999999999" viewBox="3.5 -34.3 180.99 34.599999999999994" height="75.6076906077348" data-palette-color="#096a2e"><path d="M3.5 0L3.5-33.85 23.6-33.85 23.6-29.35 9.45-29.35 9.45-19.6 21.1-19.6 20.35-15.1 9.45-15.1 9.45 0 3.5 0ZM27.9 0L27.9-33.85 33.85-33.85 33.85 0 27.9 0ZM61-16.15L60.85-33.85 66.8-33.85 66.8 0.05 61.85 0.05 50.45-17.75Q49.5-19.2 48.37-21.03 47.25-22.85 46.25-24.4L46.25-24.4Q46.4-22.8 46.52-21.05 46.65-19.3 46.65-17.7L46.65-17.7 46.8 0 40.85 0 40.85-33.95 45.5-33.95 57.25-16.35Q58.25-14.9 59.27-13.28 60.3-11.65 61.3-10.15L61.3-10.15Q61.2-11.75 61.1-13.38 61-15 61-16.15L61-16.15ZM83.54-34.3L83.54-34.3Q85.29-34.3 86.89-33.98 88.49-33.65 89.82-33.23 91.14-32.8 92.07-32.35 92.99-31.9 93.34-31.65L93.34-31.65 90.89-27.35 90.24-27.7Q89.59-28.05 88.54-28.5 87.49-28.95 86.24-29.3 84.99-29.65 83.84-29.65L83.84-29.65Q82.04-29.65 80.72-28.8 79.39-27.95 79.39-26.15L79.39-26.15Q79.39-23.9 80.84-22.48 82.29-21.05 85.39-19.85L85.39-19.85Q87.39-19.05 88.97-18.18 90.54-17.3 91.64-16.15 92.74-15 93.32-13.5 93.89-12 93.89-9.9L93.89-9.9Q93.89-8 93.17-6.15 92.44-4.3 91.02-2.88 89.59-1.45 87.49-0.58 85.39 0.3 82.64 0.3L82.64 0.3Q80.69 0.3 78.94-0.1 77.19-0.5 75.77-1.03 74.34-1.55 73.32-2.1 72.29-2.65 71.79-2.95L71.79-2.95 73.89-7.55 74.79-7.05Q75.69-6.55 76.99-5.95 78.29-5.35 79.74-4.85 81.19-4.35 82.24-4.35L82.24-4.35Q84.89-4.35 86.19-5.65 87.49-6.95 87.49-9.3L87.49-9.3Q87.49-10.4 87.14-11.23 86.79-12.05 86.14-12.65 85.49-13.25 84.57-13.73 83.64-14.2 82.49-14.65L82.49-14.65Q80.24-15.6 78.47-16.55 76.69-17.5 75.44-18.73 74.19-19.95 73.54-21.53 72.89-23.1 72.89-25.3L72.89-25.3Q72.89-27.15 73.69-28.78 74.49-30.4 75.89-31.63 77.29-32.85 79.24-33.58 81.19-34.3 83.54-34.3ZM119.04 0L119.04-15.4 105.09-15.4 105.09 0 99.14 0 99.14-33.85 105.09-33.85 105.09-19.75 119.04-19.75 119.04-33.85 124.99-33.85 124.99 0 119.04 0ZM145.54-34.3Q149.29-34.3 151.94-33.1 154.59-31.9 156.31-29.7 158.04-27.5 158.84-24.33 159.64-21.15 159.64-17.2L159.64-17.2Q159.64-13.3 158.76-10.08 157.89-6.85 156.06-4.55 154.24-2.25 151.46-0.98 148.69 0.3 144.89 0.3L144.89 0.3Q141.14 0.3 138.46-0.83 135.79-1.95 134.06-4.13 132.34-6.3 131.54-9.4 130.74-12.5 130.74-16.5L130.74-16.5Q130.74-20.4 131.61-23.68 132.49-26.95 134.31-29.33 136.14-31.7 138.94-33 141.74-34.3 145.54-34.3L145.54-34.3ZM144.84-29.7Q142.64-29.7 141.19-28.73 139.74-27.75 138.84-26.05 137.94-24.35 137.56-22.05 137.19-19.75 137.19-17.05L137.19-17.05Q137.19-14.5 137.54-12.2 137.89-9.9 138.81-8.15 139.74-6.4 141.36-5.35 142.99-4.3 145.59-4.3L145.59-4.3Q147.74-4.3 149.21-5.25 150.69-6.2 151.59-7.85 152.49-9.5 152.86-11.78 153.24-14.05 153.24-16.7L153.24-16.7Q153.24-19.25 152.89-21.6 152.54-23.95 151.61-25.75 150.69-27.55 149.06-28.63 147.44-29.7 144.84-29.7L144.84-29.7ZM160.89-33.85L184.49-33.85 183.74-29.35 175.34-29.35 175.34 0 169.44 0 169.44-29.35 160.89-29.35 160.89-33.85Z" opacity="1" transform="matrix(1,0,0,1,0,0)" fill="#ffffff" class="undefined-text-0" data-fill-palette-color="primary" id="text-0"></path></svg></g></svg></g></svg></g></svg></g><g><svg viewBox="0 0 197.93488997895338 104.48982841988949" height="104.48982841988949" width="197.93488997895338"><g><svg xmlns="http://www.w3.org/2000/svg" xmlns:xlink="http://www.w3.org/1999/xlink" version="1.1" x="0" y="0" viewBox="0 0.001 100 52.79" enable-background="new 0 0 100 52.792" xml:space="preserve" width="197.93488997895338" height="104.48982841988949" class="icon-icon-0" data-fill-palette-color="accent" id="icon-0"><g fill="#8abe53" data-fill-palette-color="accent"><g fill="#8abe53" data-fill-palette-color="accent"><g fill="#8abe53" data-fill-palette-color="accent"><path fill="#ffffff" d="M9.22 15.981v-4.62c0.73 0.2 1.26 0.41 1.57 0.63 0.53 0.38 0.8 0.94 0.8 1.67 0 0.47-0.1 0.87-0.29 1.23C10.91 15.571 10.22 15.941 9.22 15.981z" data-fill-palette-color="accent"></path><path fill="#ffffff" d="M8.39 11.151v4.79c-1-0.08-1.67-0.45-2.04-1.12-0.21-0.37-0.33-0.95-0.38-1.75H4.41c0 1 0.17 1.8 0.5 2.4 0.61 1.09 1.77 1.69 3.48 1.81v1.7h0.83v-1.7c1.06-0.12 1.87-0.36 2.44-0.72 1.01-0.66 1.52-1.77 1.52-3.33 0-1.08-0.4-1.89-1.19-2.44-0.49-0.33-1.41-0.69-2.77-1.07v-4.28c0.81 0.03 1.4 0.34 1.77 0.93 0.2 0.32 0.32 0.7 0.36 1.15h1.54c-0.03-0.99-0.36-1.79-0.98-2.4-0.63-0.6-1.52-0.95-2.69-1.03v-1.15H8.39v1.17c-1.18 0.01-2.1 0.37-2.75 1.09-0.65 0.71-0.98 1.52-0.98 2.41 0 0.99 0.3 1.77 0.91 2.34C6.18 10.511 7.11 10.911 8.39 11.151zM0 0.001h100v52.79H0V0.001zM66.19 26.401c0-10.78-7.25-19.51-16.19-19.51-8.94 0-16.19 8.73-16.19 19.51 0 10.77 7.25 19.5 16.19 19.5C58.94 45.901 66.19 37.171 66.19 26.401z" data-fill-palette-color="accent"></path><path fill="#ffffff" d="M8.39 5.421v4.13c-0.66-0.13-1.18-0.36-1.57-0.69-0.38-0.32-0.58-0.78-0.58-1.36 0-0.48 0.17-0.94 0.49-1.38C7.06 5.681 7.61 5.451 8.39 5.421z" data-fill-palette-color="accent"></path></g></g></g></svg></g></svg></g></svg></g><defs></defs></svg><rect width="395.52" height="64.98374685951859" fill="none" stroke="none" visibility="hidden"></rect></g></svg></g></svg>