<svg xmlns="http://www.w3.org/2000/svg" version="1.1" xmlns:xlink="http://www.w3.org/1999/xlink" xmlns:svgjs="http://svgjs.dev/svgjs" width="2000" height="560" viewBox="0 0 2000 560"><g transform="matrix(1,0,0,1,-1.2121212121212466,-0.15969321229971456)"><svg viewBox="0 0 396 111" data-background-color="#ffffff" preserveAspectRatio="xMidYMid meet" height="560" width="2000" xmlns="http://www.w3.org/2000/svg" xmlns:xlink="http://www.w3.org/1999/xlink"><g id="tight-bounds" transform="matrix(1,0,0,1,0.2400000000000091,0.03165347600941004)"><svg viewBox="0 0 395.52 110.93669304798117" height="110.93669304798117" width="395.52"><g><svg viewBox="0 0 594.653172040838 166.7901911830066" height="110.93669304798117" width="395.52"><g transform="matrix(1,0,0,1,199.13317204083793,49.14449318186475)"><svg viewBox="0 0 395.52 68.5012048192771" height="68.5012048192771" width="395.52"><g><svg viewBox="0 0 395.52 68.5012048192771" height="68.5012048192771" width="395.52" id="textblock"><g><svg viewBox="0 0 395.52 68.5012048192771" height="68.5012048192771" width="395.52"><g transform="matrix(1,0,0,1,0,0)"><svg width="395.52" viewBox="4.199999809265137 -33.08000183105469 194.52000427246094 33.69000244140625" height="68.5012048192771" data-palette-color="#ed2647"><path d="M21.24-20.07L21.31-14.04Q20.14-14.16 18.29-14.16L18.29-14.16 10.89-14.16 10.89 0 4.2 0 4.2-32.64Q4.86-32.59 5.71-32.57L5.71-32.57 7.52-32.52Q9.38-32.47 11.38-32.47L11.38-32.47Q17.38-32.47 22.85-32.67L22.85-32.67Q22.58-30.52 22.58-26.93L22.58-26.93Q22.58-26.54 22.63-26.34L22.63-26.34 22.58-26.27Q21.29-26.64 18.97-26.64L18.97-26.64 10.89-26.64 10.89-19.92 18.02-19.92Q20.7-19.92 21.24-20.07L21.24-20.07ZM29.9 0L29.9-32.57Q32.35-32.47 32.86-32.47L32.86-32.47 34.62-32.47Q35.91-32.47 36.69-32.67L36.69-32.67 36.67 0 29.9 0ZM52.44 0L46.06 0Q46.21-0.83 46.21-1.81L46.21-1.81 46.21-32.47 51.09-32.47 64.03-12.11 64.03-30.81Q64.03-32.15 63.79-32.47L63.79-32.47 70.38-32.47Q70.26-31.49 70.26-30.32L70.26-30.32 70.26 0 65.18 0 52.44-19.56 52.44 0ZM98.63-30.66L98.63-30.66 98.16-23.49 97.99-23.44Q96.18-26.15 91.84-26.95L91.84-26.95Q90.47-27.22 89.21-27.22 87.96-27.22 87.07-27 86.17-26.78 85.54-26.37L85.54-26.37Q84.2-25.49 84.2-24.07L84.2-24.07Q84.2-22.22 85.37-21.29L85.37-21.29Q86.83-20.17 90.23-19.71 93.62-19.26 95.67-18.48 97.72-17.7 99.04-16.5L99.04-16.5Q101.53-14.26 101.53-10.16L101.53-10.16Q101.53-4.79 97.48-1.88L97.48-1.88Q94.01 0.61 88.74 0.61L88.74 0.61Q84.49 0.61 80.34-1L80.34-1Q78.97-1.54 77.95-2.25L77.95-2.25 78.22-10.4 78.31-10.47Q81.34-5.25 88.25-5.25L88.25-5.25Q93.16-5.25 94.74-7.62L94.74-7.62Q95.28-8.42 95.28-9.41 95.28-10.4 94.96-11.05 94.65-11.69 93.91-12.16L93.91-12.16Q92.5-13.09 89.15-13.4 85.81-13.72 83.68-14.6 81.56-15.48 80.29-16.77L80.29-16.77Q78-19.12 78-23.32L78-23.32Q78-27.66 81.05-30.35L81.05-30.35Q84.15-33.08 89.41-33.08 94.67-33.08 98.63-30.66ZM114.74-13.79L114.74 0.15Q112.39 0 109.17 0L109.17 0 108.39 0 108.39-32.59Q109.9-32.47 110.54-32.47L110.54-32.47 111.54-32.47Q113.47-32.47 114.74-32.67L114.74-32.67 114.74-19.65 126.21-19.65 126.21-32.59Q128.24-32.47 130.15-32.47 132.07-32.47 132.56-32.67L132.56-32.67 132.56 0.15Q131.39 0 127.92 0L127.92 0 126.21 0 126.21-13.79 114.74-13.79ZM144.1-3.86Q141.88-5.98 140.6-8.96 139.32-11.94 139.32-15.49 139.32-19.04 140.51-22.22 141.71-25.39 143.93-27.81 146.15-30.22 149.3-31.65 152.45-33.08 156.36-33.08L156.36-33.08Q163.1-33.08 167.71-28.83L167.71-28.83Q172.64-24.29 172.64-16.58L172.64-16.58Q172.64-9.11 167.57-4.15L167.57-4.15Q164.44-1.1 160.12 0.05L160.12 0.05Q158 0.61 155.15 0.61 152.31 0.61 149.32-0.56 146.33-1.73 144.1-3.86ZM146.11-15.82L146.11-15.82Q146.11-13.55 146.86-11.65 147.62-9.74 148.96-8.37L148.96-8.37Q151.82-5.49 156.31-5.49L156.31-5.49Q160.58-5.49 163.17-8.25L163.17-8.25Q165.81-11.11 165.81-16.04L165.81-16.04Q165.81-20.68 163.29-23.78L163.29-23.78Q160.58-27.1 155.87-27.1L155.87-27.1Q151.31-27.1 148.62-23.73L148.62-23.73Q146.11-20.58 146.11-15.82ZM190.63-27L190.63 0.15Q189.46 0 184.6 0L184.6 0 183.82 0 183.82-27 178.99-27Q176.84-27 176.45-26.78 176.06-26.56 175.84-26.39L175.84-26.39 175.77-26.42 175.77-32.67 175.84-32.74Q176.65-32.47 180.19-32.47L180.19-32.47 195.49-32.47Q197.64-32.47 198.03-32.69 198.42-32.91 198.64-33.08L198.64-33.08 198.72-33.06 198.72-26.81 198.64-26.73Q197.84-27 194.3-27L194.3-27 190.63-27Z" opacity="1" transform="matrix(1,0,0,1,0,0)" fill="#ed2647" class="undefined-text-0" data-fill-palette-color="primary" id="text-0"></path></svg></g></svg></g></svg></g></svg></g><g><svg viewBox="0 0 166.7901911830066 166.7901911830066" height="166.7901911830066" width="166.7901911830066"><g><svg></svg></g><g id="icon-0"><svg viewBox="0 0 166.7901911830066 166.7901911830066" height="166.7901911830066" width="166.7901911830066"><g><path d="M0 83.395c0-46.058 37.337-83.395 83.395-83.395 46.058 0 83.395 37.337 83.395 83.395 0 46.058-37.337 83.395-83.395 83.395-46.058 0-83.395-37.337-83.395-83.395zM83.395 160.613c42.646 0 77.218-34.571 77.218-77.218 0-42.646-34.571-77.218-77.218-77.217-42.646 0-77.218 34.571-77.217 77.217 0 42.646 34.571 77.218 77.217 77.218z" data-fill-palette-color="accent" fill="#ed2647" stroke="transparent"></path><ellipse rx="82.56114463558828" ry="82.56114463558828" cx="83.3950955915033" cy="83.3950955915033" fill="#ed2647" stroke="transparent" stroke-width="0" fill-opacity="1" data-fill-palette-color="accent"></ellipse></g><g transform="matrix(1,0,0,1,35.13450726686075,44.580688217736416)"><svg viewBox="0 0 96.52117664928511 77.62881474753378" height="77.62881474753378" width="96.52117664928511"><g><svg xmlns="http://www.w3.org/2000/svg" xmlns:xlink="http://www.w3.org/1999/xlink" version="1.1" x="0" y="0" viewBox="0 9.78600025177002 100.0003433227539 80.42699432373047" enable-background="new 0 0 100 100" xml:space="preserve" width="96.52117664928511" height="77.62881474753378" class="icon-s-0" data-fill-palette-color="quaternary" id="s-0"><path d="M49.942 52.994c13.552-0.488 27.103-0.977 40.653-1.465-2.527-4.177-3.159-7.831-7.989-8.461-7.229-0.94-14.458-1.883-21.688-2.826-14.023-1.827-28.05-3.654-42.075-5.48C20.101 36.792 39.724 53.361 49.942 52.994z" fill="#ffffff" data-fill-palette-color="quaternary"></path><path d="M0 9.786c4.391 7.257 26.615 23.072 32.953 23.886 17.33 2.231 34.657 4.46 51.986 6.688-3.393-5.607-4.18-9.35-10.312-10.959-8.904-2.341-17.812-4.683-26.717-7.023C31.94 18.182 15.97 13.984 0 9.786z" fill="#ffffff" data-fill-palette-color="quaternary"></path><path d="M63.108 66.207c10.413-2.219 20.826-4.439 31.241-6.66-2.028-3.346-2.034-5.359-5.827-5.189-6.158 0.273-12.314 0.549-18.471 0.822-11.343 0.506-22.686 1.014-34.028 1.518C37.298 58.064 54.94 67.947 63.108 66.207z" fill="#ffffff" data-fill-palette-color="quaternary"></path><path d="M87.682 90.213c5.725-3.719 7.262-7.721 10.519-13.807 3.651-6.824 1.257-7.844-2.821-14.596-0.417-0.688-5.842 0.232-6.453 0.904-0.745 0.818-0.248 5.455-0.294 6.496C88.315 76.211 87.998 83.213 87.682 90.213z" fill="#ffffff" data-fill-palette-color="quaternary"></path><path d="M86.35 63.447c-3.795 0.809-8.604 0.191-9.572 4.229-1.373 5.736-2.746 11.475-4.12 17.211C81.904 82.678 86.028 71.582 86.35 63.447z" fill="#ffffff" data-fill-palette-color="quaternary"></path><path d="M74.666 66.121c-9.148 1.953-8.956 4.611-12.879 13.18C68.007 78.711 73.811 71.941 74.666 66.121z" fill="#ffffff" data-fill-palette-color="quaternary"></path></svg></g></svg></g></svg></g></svg></g></svg></g><defs></defs></svg><rect width="395.52" height="110.93669304798117" fill="none" stroke="none" visibility="hidden"></rect></g></svg></g></svg>